# xmcd
#
# Track frame offsets: 
#        150
#        12458
#        31569
#        47027
#        57136
#        76313
#        89211
#        114587
#        129915
#
# Disc length: 2061 seconds
#
# Revision: 0
# Processed by: cddbd v1.5.1PL0 Copyright (c) Steve Scherf et al.
# Submitted via: ExactAudioCopy v0.95a5
#
DISCID=6a080b09
DTITLE=Stick In Mind - Alive
DYEAR=1999
DGENRE=Blues
TTITLE0=Misty
TTITLE1=Spanischer Flamenco in a-Moll
TTITLE2=Radio Song
TTITLE3=Ruby
TTITLE4=Summersong
TTITLE5=Funky
TTITLE6=Jazz-Blues in c-Moll
TTITLE7=Point Zero
TTITLE8=Speedy Liedy
EXTD=
EXTT0=
EXTT1=
EXTT2=
EXTT3=
EXTT4=
EXTT5=
EXTT6=
EXTT7=
EXTT8=
PLAYORDER=
